<?xml version="1.0" encoding="utf-8"?>
<!-- Generator: Adobe Illustrator 18.1.1, SVG Export Plug-In . SVG Version: 6.00 Build 0)  -->
<svg version="1.1" id="Layer_1" xmlns="http://www.w3.org/2000/svg" xmlns:xlink="http://www.w3.org/1999/xlink" x="0px" y="0px"
	 viewBox="0 0 130 21" enable-background="new 0 0 130 21" xml:space="preserve">
<g>
	<g>
		<rect x="0" y="0" fill="#FFFFFF" width="130" height="21"/>
	</g>
	<g>
		<rect x="0" y="0" fill="#E2231A" width="41.6" height="21"/>
	</g>
	<g>
		<path fill="#FFFFFF" d="M5.2,5.2H10c1.3,0,2.4,0.4,3.1,1.1c0.6,0.6,0.9,1.4,0.9,2.4v0c0,1.7-0.9,2.8-2.2,3.3l2.6,3.8h-2.7
			l-2.2-3.4H7.5v3.4H5.2V5.2z M9.8,10.3c1.1,0,1.8-0.6,1.8-1.5v0c0-1-0.7-1.5-1.8-1.5H7.5v3H9.8z"/>
		<path fill="#FFFFFF" d="M16.4,5.2h7.9v2.1h-5.6v2.1h4.9v2.1h-4.9v2.2h5.7v2.1h-8V5.2z"/>
		<path fill="#FFFFFF" d="M26.8,5.2h4.1c3.3,0,5.6,2.3,5.6,5.2v0c0,3-2.3,5.3-5.6,5.3h-4.1V5.2z M29.1,7.3v6.3h1.8
			c1.9,0,3.2-1.3,3.2-3.1v0c0-1.9-1.3-3.2-3.2-3.2H29.1z"/>
	</g>
	<g>
		<path fill="#808184" d="M51.4,5.2h1.7l4.6,10.5h-1.9l-1.1-2.5h-4.9l-1.1,2.5h-1.9L51.4,5.2z M54,11.6l-1.8-4.2l-1.8,4.2H54z"/>
		<path fill="#808184" d="M58.3,10.6L58.3,10.6c0-3,2.2-5.4,5.4-5.4c1.9,0,3.1,0.7,4.1,1.6l-1.2,1.4c-0.8-0.8-1.7-1.3-2.9-1.3
			c-2,0-3.4,1.6-3.4,3.7v0c0,2,1.4,3.7,3.4,3.7c1.3,0,2.1-0.5,3-1.3l1.2,1.2c-1.1,1.1-2.3,1.8-4.2,1.8
			C60.6,15.9,58.3,13.6,58.3,10.6z"/>
		<path fill="#808184" d="M73.4,5.2h1.7l4.6,10.5h-1.9l-1.1-2.5h-4.9l-1.1,2.5h-1.9L73.4,5.2z M76,11.6l-1.8-4.2l-1.8,4.2H76z"/>
		<path fill="#808184" d="M81.4,5.3h3.9c3.3,0,5.5,2.2,5.5,5.2v0c0,2.9-2.3,5.2-5.5,5.2h-3.9V5.3z M83.3,7v7.1h2
			c2.2,0,3.6-1.5,3.6-3.5v0c0-2-1.4-3.5-3.6-3.5H83.3z"/>
		<path fill="#808184" d="M93,5.3h7.7V7h-5.9v2.7h5.2v1.6h-5.2v2.8h6v1.6H93V5.3z"/>
		<path fill="#808184" d="M103,5.3h1.9l3.2,4.9l3.2-4.9h1.9v10.4h-1.8V8.3l-3.3,4.9H108l-3.3-4.9v7.4H103V5.3z"/>
		<path fill="#808184" d="M118.9,11.6l-4.1-6.3h2.2l2.9,4.6l2.9-4.6h2.1l-4.1,6.3v4.2h-1.8V11.6z"/>
	</g>
</g>
</svg>
